<mxfile host="app.diagrams.net" modified="2023-10-11T07:16:47.080Z" agent="Mozilla/5.0 (Windows NT 10.0; Win64; x64) AppleWebKit/537.36 (KHTML, like Gecko) Chrome/117.0.0.0 Safari/537.36" etag="fufFs1-4lMZg4g5IJ2z0" version="22.0.4" type="github">
  <diagram name="第 1 页" id="XCoSUUa8f8nXL_mb6biP">
    <mxGraphModel dx="1562" dy="913" grid="1" gridSize="10" guides="1" tooltips="1" connect="1" arrows="1" fold="1" page="1" pageScale="1" pageWidth="827" pageHeight="1169" math="0" shadow="0">
      <root>
        <mxCell id="0" />
        <mxCell id="1" parent="0" />
        <mxCell id="2qahmTby5e5UWyO_VOSm-1" value="" style="edgeStyle=orthogonalEdgeStyle;rounded=0;orthogonalLoop=1;jettySize=auto;html=1;" edge="1" parent="1" source="C3e35mo2uv0TBhLOU0QC-2" target="C3e35mo2uv0TBhLOU0QC-5">
          <mxGeometry relative="1" as="geometry" />
        </mxCell>
        <mxCell id="C3e35mo2uv0TBhLOU0QC-2" value="开始" style="rounded=1;whiteSpace=wrap;html=1;fontSize=12;glass=0;strokeWidth=1;shadow=0;" parent="1" vertex="1">
          <mxGeometry x="160" y="80" width="120" height="40" as="geometry" />
        </mxCell>
        <mxCell id="2qahmTby5e5UWyO_VOSm-2" value="" style="edgeStyle=orthogonalEdgeStyle;rounded=0;orthogonalLoop=1;jettySize=auto;html=1;" edge="1" parent="1" source="C3e35mo2uv0TBhLOU0QC-5" target="C3e35mo2uv0TBhLOU0QC-6">
          <mxGeometry relative="1" as="geometry" />
        </mxCell>
        <mxCell id="2qahmTby5e5UWyO_VOSm-7" value="" style="edgeStyle=orthogonalEdgeStyle;rounded=0;orthogonalLoop=1;jettySize=auto;html=1;" edge="1" parent="1" source="C3e35mo2uv0TBhLOU0QC-5" target="C3e35mo2uv0TBhLOU0QC-17">
          <mxGeometry relative="1" as="geometry" />
        </mxCell>
        <mxCell id="C3e35mo2uv0TBhLOU0QC-5" value="是否已登录" style="rhombus;whiteSpace=wrap;html=1;shadow=0;fontFamily=Helvetica;fontSize=12;align=center;strokeWidth=1;spacing=6;spacingTop=-4;" parent="1" vertex="1">
          <mxGeometry x="170" y="170" width="100" height="80" as="geometry" />
        </mxCell>
        <mxCell id="2qahmTby5e5UWyO_VOSm-5" value="" style="edgeStyle=orthogonalEdgeStyle;rounded=0;orthogonalLoop=1;jettySize=auto;html=1;entryX=1;entryY=0.5;entryDx=0;entryDy=0;" edge="1" parent="1" source="C3e35mo2uv0TBhLOU0QC-6" target="C3e35mo2uv0TBhLOU0QC-17">
          <mxGeometry relative="1" as="geometry">
            <mxPoint x="380" y="310" as="targetPoint" />
            <Array as="points">
              <mxPoint x="380" y="315" />
            </Array>
          </mxGeometry>
        </mxCell>
        <mxCell id="C3e35mo2uv0TBhLOU0QC-6" value="登录" style="rounded=1;whiteSpace=wrap;html=1;fontSize=12;glass=0;strokeWidth=1;shadow=0;" parent="1" vertex="1">
          <mxGeometry x="320" y="190" width="120" height="40" as="geometry" />
        </mxCell>
        <mxCell id="C3e35mo2uv0TBhLOU0QC-9" value="" style="edgeStyle=orthogonalEdgeStyle;rounded=0;orthogonalLoop=1;jettySize=auto;html=1;exitX=0.5;exitY=1;exitDx=0;exitDy=0;" parent="1" source="C3e35mo2uv0TBhLOU0QC-18" edge="1">
          <mxGeometry relative="1" as="geometry">
            <mxPoint x="220" y="370" as="sourcePoint" />
            <mxPoint x="220" y="480" as="targetPoint" />
          </mxGeometry>
        </mxCell>
        <mxCell id="C3e35mo2uv0TBhLOU0QC-10" value="结束" style="rounded=1;whiteSpace=wrap;html=1;fontSize=12;glass=0;strokeWidth=1;shadow=0;" parent="1" vertex="1">
          <mxGeometry x="160" y="720" width="120" height="40" as="geometry" />
        </mxCell>
        <mxCell id="2qahmTby5e5UWyO_VOSm-9" value="" style="edgeStyle=orthogonalEdgeStyle;rounded=0;orthogonalLoop=1;jettySize=auto;html=1;" edge="1" parent="1" source="C3e35mo2uv0TBhLOU0QC-14" target="C3e35mo2uv0TBhLOU0QC-10">
          <mxGeometry relative="1" as="geometry" />
        </mxCell>
        <mxCell id="C3e35mo2uv0TBhLOU0QC-14" value="选择该课程对应类型（正常、补考、重修）" style="rounded=1;whiteSpace=wrap;html=1;fontSize=12;glass=0;strokeWidth=1;shadow=0;" parent="1" vertex="1">
          <mxGeometry x="160" y="580" width="120" height="70" as="geometry" />
        </mxCell>
        <mxCell id="C3e35mo2uv0TBhLOU0QC-16" value="" style="edgeStyle=orthogonalEdgeStyle;rounded=0;orthogonalLoop=1;jettySize=auto;html=1;" parent="1" source="C3e35mo2uv0TBhLOU0QC-17" target="C3e35mo2uv0TBhLOU0QC-18" edge="1">
          <mxGeometry relative="1" as="geometry" />
        </mxCell>
        <mxCell id="C3e35mo2uv0TBhLOU0QC-17" value="展示所有学生成绩" style="rounded=1;whiteSpace=wrap;html=1;fontSize=12;glass=0;strokeWidth=1;shadow=0;" parent="1" vertex="1">
          <mxGeometry x="160" y="290" width="120" height="50" as="geometry" />
        </mxCell>
        <mxCell id="C3e35mo2uv0TBhLOU0QC-18" value="按照课程分组选择学生" style="rounded=1;whiteSpace=wrap;html=1;fontSize=12;glass=0;strokeWidth=1;shadow=0;" parent="1" vertex="1">
          <mxGeometry x="160" y="380" width="120" height="50" as="geometry" />
        </mxCell>
        <mxCell id="C3e35mo2uv0TBhLOU0QC-23" value="" style="edgeStyle=orthogonalEdgeStyle;rounded=0;orthogonalLoop=1;jettySize=auto;html=1;" parent="1" source="C3e35mo2uv0TBhLOU0QC-22" target="C3e35mo2uv0TBhLOU0QC-14" edge="1">
          <mxGeometry relative="1" as="geometry" />
        </mxCell>
        <mxCell id="C3e35mo2uv0TBhLOU0QC-22" value="输入对应分数" style="rounded=1;whiteSpace=wrap;html=1;fontSize=12;glass=0;strokeWidth=1;shadow=0;" parent="1" vertex="1">
          <mxGeometry x="160" y="480" width="120" height="50" as="geometry" />
        </mxCell>
        <mxCell id="2qahmTby5e5UWyO_VOSm-3" value="否" style="text;html=1;align=center;verticalAlign=middle;resizable=0;points=[];autosize=1;strokeColor=none;fillColor=none;" vertex="1" parent="1">
          <mxGeometry x="270" y="188" width="40" height="30" as="geometry" />
        </mxCell>
        <mxCell id="2qahmTby5e5UWyO_VOSm-6" value="是" style="text;html=1;align=center;verticalAlign=middle;resizable=0;points=[];autosize=1;strokeColor=none;fillColor=none;" vertex="1" parent="1">
          <mxGeometry x="340" y="280" width="40" height="30" as="geometry" />
        </mxCell>
        <mxCell id="2qahmTby5e5UWyO_VOSm-8" value="是" style="text;html=1;align=center;verticalAlign=middle;resizable=0;points=[];autosize=1;strokeColor=none;fillColor=none;" vertex="1" parent="1">
          <mxGeometry x="210" y="258" width="40" height="30" as="geometry" />
        </mxCell>
      </root>
    </mxGraphModel>
  </diagram>
</mxfile>
